<mxfile host="app.diagrams.net" modified="2024-04-23T03:52:34.280Z" agent="Mozilla/5.0 (Windows NT 10.0; Win64; x64) AppleWebKit/537.36 (KHTML, like Gecko) Chrome/109.0.0.0 Safari/537.36" version="24.2.8" etag="TQ0JQ-yMG0Lf9ZlQSYu5" type="github">
  <diagram name="第 1 页" id="WlTWtCsWLRX7FqF-JtRI">
    <mxGraphModel>
      <root>
        <mxCell id="0" />
        <mxCell id="1" parent="0" />
      </root>
    </mxGraphModel>
  </diagram>
</mxfile>
